{"title":"Paramparca S01E54 DVB-T By Ari Gr Subs (Ragismenes Kardies)","uid":13138639,"size":385995437,"categoryP":"video","categoryS":"tv_shows","magnet":"?xt=urn:btih:62c77805ce127b468e50d2390d258753a7ac5b71&amp;dn=Paramparca+S01E54+DVB-T+By+Ari+Gr+Subs+%28Ragismenes+Kardies%29&amp;tr=udp%3A%2F%2Ftracker.leechers-paradise.org%3A6969&amp;tr=udp%3A%2F%2Fzer0day.ch%3A1337&amp;tr=udp%3A%2F%2Fopen.demonii.com%3A1337&amp;tr=udp%3A%2F%2Ftracker.coppersurfer.tk%3A6969&amp;tr=udp%3A%2F%2Fexodus.desync.com%3A6969","seeders":0,"leechers":1,"uploader":"Aris2015","files":1,"time":1451939948,"description":"ÎœÎµÏ„Î¬ Ï„Î¿ ÎºÎ±Ï„Î­Î²Î±ÏƒÎ¼Î±, ÏƒÏ…Î½ÎµÏ‡Î¯ÏƒÏ„Îµ Î½Î± seedÎ±ÏÎµÏ„Îµ, Ï„Î¿Ï…Î»Î¬Ï‡Î¹ÏƒÏ„Î¿Î½ Î¼Î­Ï‡ÏÎ¹ Ï„Î¿ share ratio Î½Î± Î´ÎµÎ¯Î¾ÎµÎ¹ 3,00 Î•Ï„ÏƒÎ¹ Î²Î¿Î·Î¸Î¬Ï„Îµ ÎºÎ±Î¹ Ï„Î¿Ï…Ï‚ Î¬Î»Î»Î¿Ï…Ï‚, ÎºÎ±Î¹ Ï„Î± Î±ÏÏ‡ÎµÎ¯Î± Ï€Î±ÏÎ±Î¼Î­Î½Î¿Ï…Î½ ÎµÎ½ÎµÏÎ³Î¬ Î³Î¹Î± Ï€Î¿Î»Ï ÎºÎ±Î¹ÏÏŒ... \r\n\r\nÎ Î¡ÎŸÎ£ÎŸÎ§Î—: ÎœÎ•Î¤Î‘ Î¤ÎŸ Î¤Î•Î›ÎŸÎ£ Î¤ÎŸÎ¥ ÎšÎ‘Î¤Î•Î’Î‘Î£ÎœÎ‘Î¤ÎŸÎ£, ÎœÎ— Î¤ÎŸ Î”Î™Î‘Î“Î¡Î‘Î¨Î•Î¤Î• Î‘Î ÎŸ Î¤ÎŸ Î¤ÎŸÎ¡Î¡Î•ÎÎ¤. ÎšÎ¡Î‘Î¤Î©ÎÎ¤Î‘Î£ Î¤ÎŸ ÎšÎ‘Î™ SEEDÎ‘Î¡ÎŸÎÎ¤Î‘Î£, Î”Î™ÎÎ•Î¤Î• Î¤Î‘Î§Î¥Î¤Î—Î¤Î‘ Î£Î¤ÎŸÎ¥Î£ Î‘Î›Î›ÎŸÎ¥Î£!\r\n\r\nGeneral \r\nComplete name : Paramparca S01E54 DVB-T By Ari.mp4 \r\nFormat : MPEG-4 \r\nFormat profile : Base Media \r\nCodec ID : isom (isom/iso2/avc1/mp41) \r\nFile size : 368 MiB \r\nDuration : 45mn 23s \r\nOverall bit rate mode : Variable \r\nOverall bit rate : 1 134 Kbps \r\nMovie name : Paramparca S01E54 DVB-T \r\nGenre : DRAMA \r\nRecorded date : 2015 \r\nEncoded date : UTC 2015-12-31 21:28:27 \r\nTagged date : UTC 2015-12-31 21:28:27 \r\nWriting application : Lavf55.37.100 \r\n\r\nVideo \r\nID : 1 \r\nFormat : AVC \r\nFormat/Info : Advanced Video Codec \r\nFormat profile :    \r\nFormat settings, CABAC : Yes \r\nFormat settings, ReFrames : 16 frames \r\nCodec ID : avc1 \r\nCodec ID/Info : Advanced Video Coding \r\nDuration : 45mn 23s \r\nBit rate mode : Variable \r\nBit rate : 1 000 Kbps \r\nMaximum bit rate : 17.5 Mbps \r\nWidth : 720 pixels \r\nHeight : 576 pixels \r\nDisplay aspect ratio : 16:9 \r\nFrame rate mode : Constant \r\nFrame rate : 25.000 fps \r\nStandard : PAL \r\nColor space : YUV \r\nChroma subsampling : 4:2:0 \r\nBit depth : 8 bits \r\nScan type : Progressive \r\nBits/(Pixel*Frame) : 0.096 \r\nStream size : 325 MiB (88%) \r\nLanguage : Turkish \r\n\r\nAudio \r\nID : 2 \r\nFormat : AAC \r\nFormat/Info : Advanced Audio Codec \r\nFormat profile : LC \r\nCodec ID : 40 \r\nDuration : 45mn 23s \r\nDuration_LastFrame : -5ms \r\nBit rate mode : Constant \r\nBit rate : 128 Kbps \r\nChannel(s) : 2 channels \r\nChannel positions : Front: L R \r\nSampling rate : 48.0 KHz \r\nFrame rate : 46.875 fps (1024 spf) \r\nCompression mode : Lossy \r\nStream size : 41.5 MiB (11%) \r\nLanguage : Turkish \r\nDefault : Yes \r\n\r\nScreenshot&gt; \nhttp://imgur.com/tY77slK","torrent":{"xt":"urn:btih:62c77805ce127b468e50d2390d258753a7ac5b71","amp;dn":"Paramparca+S01E54+DVB-T+By+Ari+Gr+Subs+%28Ragismenes+Kardies%29","amp;tr":["udp%3A%2F%2Ftracker.leechers-paradise.org%3A6969","udp%3A%2F%2Fzer0day.ch%3A1337","udp%3A%2F%2Fopen.demonii.com%3A1337","udp%3A%2F%2Ftracker.coppersurfer.tk%3A6969","udp%3A%2F%2Fexodus.desync.com%3A6969"],"infoHash":"62c77805ce127b468e50d2390d258753a7ac5b71","infoHashBuffer":{"type":"Buffer","data":[98,199,120,5,206,18,123,70,142,80,210,57,13,37,135,83,167,172,91,113]},"announce":[],"urlList":[]}}